<svg width="152" height="27" viewBox="0 0 152 27" fill="none" xmlns="http://www.w3.org/2000/svg">
<path d="M2.132 26C1.712 26 1.362 25.86 1.082 25.58C0.825338 25.3 0.697005 24.9617 0.697005 24.565V2.9C0.697005 2.50333 0.825338 2.17667 1.082 1.92C1.362 1.64 1.70034 1.5 2.097 1.5H14.382C14.7787 1.5 15.117 1.62833 15.397 1.885C15.677 2.14167 15.817 2.46833 15.817 2.865C15.817 3.23833 15.677 3.55333 15.397 3.81C15.117 4.06667 14.7787 4.195 14.382 4.195H3.357L3.567 3.915V12.49L3.392 12.105H12.807C13.2037 12.105 13.542 12.245 13.822 12.525C14.102 12.7817 14.242 13.1083 14.242 13.505C14.242 13.855 14.102 14.17 13.822 14.45C13.542 14.7067 13.2037 14.835 12.807 14.835H3.322L3.567 14.52V24.565C3.567 24.9617 3.427 25.3 3.147 25.58C2.867 25.86 2.52867 26 2.132 26ZM21.0894 26C20.6928 26 20.3544 25.86 20.0744 25.58C19.8178 25.3 19.6894 24.9617 19.6894 24.565V9.305C19.6894 8.90833 19.8178 8.58167 20.0744 8.325C20.3544 8.045 20.6928 7.905 21.0894 7.905C21.5094 7.905 21.8478 8.045 22.1044 8.325C22.3611 8.58167 22.4894 8.90833 22.4894 9.305V13.925L22.0694 13.19C22.2094 12.4667 22.4544 11.7667 22.8044 11.09C23.1778 10.39 23.6444 9.77167 24.2044 9.235C24.7644 8.675 25.4061 8.24333 26.1294 7.94C26.8528 7.61333 27.6461 7.45 28.5094 7.45C29.0228 7.45 29.4894 7.57833 29.9094 7.835C30.3528 8.06833 30.5744 8.40667 30.5744 8.85C30.5744 9.34 30.4461 9.70167 30.1894 9.935C29.9328 10.1683 29.6411 10.285 29.3144 10.285C29.0111 10.285 28.7194 10.2267 28.4394 10.11C28.1594 9.97 27.8094 9.9 27.3894 9.9C26.8061 9.9 26.2228 10.0633 25.6394 10.39C25.0794 10.6933 24.5544 11.1367 24.0644 11.72C23.5978 12.3033 23.2128 12.9683 22.9094 13.715C22.6294 14.4383 22.4894 15.22 22.4894 16.06V24.565C22.4894 24.9617 22.3494 25.3 22.0694 25.58C21.8128 25.86 21.4861 26 21.0894 26ZM41.3161 26.35C39.4495 26.35 37.8161 25.9533 36.4161 25.16C35.0161 24.3667 33.9195 23.2817 33.1261 21.905C32.3561 20.505 31.9711 18.895 31.9711 17.075C31.9711 15.045 32.3678 13.3183 33.1611 11.895C33.9778 10.4483 35.0278 9.35167 36.3111 8.605C37.6178 7.835 38.9945 7.45 40.4411 7.45C41.5145 7.45 42.5528 7.64833 43.5561 8.045C44.5595 8.44167 45.4461 9.025 46.2161 9.795C46.9861 10.5417 47.6045 11.4517 48.0711 12.525C48.5378 13.575 48.7828 14.7533 48.8061 16.06C48.8061 16.4333 48.6661 16.7483 48.3861 17.005C48.1061 17.2617 47.7795 17.39 47.4061 17.39H33.5811L32.9511 14.975H46.4261L45.8661 15.465V14.695C45.7728 13.7383 45.4461 12.9217 44.8861 12.245C44.3495 11.545 43.6845 11.0083 42.8911 10.635C42.1211 10.2617 41.3045 10.075 40.4411 10.075C39.7411 10.075 39.0411 10.2033 38.3411 10.46C37.6645 10.6933 37.0461 11.09 36.4861 11.65C35.9495 12.1867 35.5061 12.8867 35.1561 13.75C34.8295 14.6133 34.6661 15.6517 34.6661 16.865C34.6661 18.2183 34.9345 19.4083 35.4711 20.435C36.0311 21.4617 36.8011 22.2783 37.7811 22.885C38.7611 23.4683 39.9045 23.76 41.2111 23.76C42.0278 23.76 42.7395 23.655 43.3461 23.445C43.9528 23.235 44.4778 22.9783 44.9211 22.675C45.3645 22.3483 45.7378 22.0217 46.0411 21.695C46.3445 21.485 46.6361 21.38 46.9161 21.38C47.2661 21.38 47.5461 21.4967 47.7561 21.73C47.9895 21.9633 48.1061 22.2433 48.1061 22.57C48.1061 22.9667 47.9195 23.3167 47.5461 23.62C46.8928 24.3433 46.0061 24.985 44.8861 25.545C43.7661 26.0817 42.5761 26.35 41.3161 26.35ZM61.3796 26.35C59.513 26.35 57.8796 25.9533 56.4796 25.16C55.0796 24.3667 53.983 23.2817 53.1896 21.905C52.4196 20.505 52.0346 18.895 52.0346 17.075C52.0346 15.045 52.4313 13.3183 53.2246 11.895C54.0413 10.4483 55.0913 9.35167 56.3746 8.605C57.6813 7.835 59.058 7.45 60.5046 7.45C61.578 7.45 62.6163 7.64833 63.6196 8.045C64.623 8.44167 65.5096 9.025 66.2796 9.795C67.0496 10.5417 67.668 11.4517 68.1346 12.525C68.6013 13.575 68.8463 14.7533 68.8696 16.06C68.8696 16.4333 68.7296 16.7483 68.4496 17.005C68.1696 17.2617 67.843 17.39 67.4696 17.39H53.6446L53.0146 14.975H66.4896L65.9296 15.465V14.695C65.8363 13.7383 65.5096 12.9217 64.9496 12.245C64.413 11.545 63.748 11.0083 62.9546 10.635C62.1846 10.2617 61.368 10.075 60.5046 10.075C59.8046 10.075 59.1046 10.2033 58.4046 10.46C57.728 10.6933 57.1096 11.09 56.5496 11.65C56.013 12.1867 55.5696 12.8867 55.2196 13.75C54.893 14.6133 54.7296 15.6517 54.7296 16.865C54.7296 18.2183 54.998 19.4083 55.5346 20.435C56.0946 21.4617 56.8646 22.2783 57.8446 22.885C58.8246 23.4683 59.968 23.76 61.2746 23.76C62.0913 23.76 62.803 23.655 63.4096 23.445C64.0163 23.235 64.5413 22.9783 64.9846 22.675C65.428 22.3483 65.8013 22.0217 66.1046 21.695C66.408 21.485 66.6996 21.38 66.9796 21.38C67.3296 21.38 67.6096 21.4967 67.8196 21.73C68.053 21.9633 68.1696 22.2433 68.1696 22.57C68.1696 22.9667 67.983 23.3167 67.6096 23.62C66.9563 24.3433 66.0696 24.985 64.9496 25.545C63.8296 26.0817 62.6396 26.35 61.3796 26.35ZM81.8281 7.625C83.3681 7.625 84.5814 7.96333 85.4681 8.64C86.3781 9.29333 87.0198 10.18 87.3931 11.3C87.7898 12.3967 87.9881 13.6217 87.9881 14.975V24.565C87.9881 24.9617 87.8481 25.3 87.5681 25.58C87.3114 25.86 86.9848 26 86.5881 26C86.1914 26 85.8531 25.86 85.5731 25.58C85.3164 25.3 85.1881 24.9617 85.1881 24.565V14.975C85.1881 14.0883 85.0598 13.295 84.8031 12.595C84.5464 11.8717 84.1148 11.3 83.5081 10.88C82.9248 10.4367 82.1198 10.215 81.0931 10.215C80.1364 10.215 79.2614 10.4367 78.4681 10.88C77.6748 11.3 77.0448 11.8717 76.5781 12.595C76.1114 13.295 75.8781 14.0883 75.8781 14.975V24.565C75.8781 24.9617 75.7381 25.3 75.4581 25.58C75.2014 25.86 74.8748 26 74.4781 26C74.0814 26 73.7431 25.86 73.4631 25.58C73.2064 25.3 73.0781 24.9617 73.0781 24.565V1.5C73.0781 1.10333 73.2064 0.776666 73.4631 0.519998C73.7431 0.239999 74.0814 0.0999997 74.4781 0.0999997C74.8981 0.0999997 75.2364 0.239999 75.4931 0.519998C75.7498 0.776666 75.8781 1.10333 75.8781 1.5V11.965L75.1781 12.735C75.2948 12.1283 75.5514 11.5217 75.9481 10.915C76.3448 10.285 76.8464 9.725 77.4531 9.235C78.0598 8.745 78.7364 8.36 79.4831 8.08C80.2298 7.77667 81.0114 7.625 81.8281 7.625ZM108.086 7.73C108.482 7.73 108.809 7.87 109.066 8.15C109.346 8.40667 109.486 8.73333 109.486 9.13V24.565C109.486 24.9617 109.346 25.3 109.066 25.58C108.809 25.86 108.482 26 108.086 26C107.666 26 107.327 25.86 107.071 25.58C106.814 25.3 106.686 24.9617 106.686 24.565V21.24L107.351 21.17C107.351 21.6833 107.176 22.2433 106.826 22.85C106.476 23.4567 105.997 24.0283 105.391 24.565C104.784 25.0783 104.061 25.51 103.221 25.86C102.404 26.1867 101.517 26.35 100.561 26.35C98.9741 26.35 97.5508 25.9417 96.2908 25.125C95.0308 24.285 94.0274 23.1533 93.2808 21.73C92.5574 20.3067 92.1958 18.685 92.1958 16.865C92.1958 15.0217 92.5574 13.4 93.2808 12C94.0274 10.5767 95.0308 9.46833 96.2908 8.675C97.5508 7.85833 98.9508 7.45 100.491 7.45C101.494 7.45 102.427 7.61333 103.291 7.94C104.154 8.26667 104.901 8.71 105.531 9.27C106.184 9.83 106.686 10.4483 107.036 11.125C107.409 11.8017 107.596 12.4783 107.596 13.155L106.686 12.945V9.13C106.686 8.73333 106.814 8.40667 107.071 8.15C107.327 7.87 107.666 7.73 108.086 7.73ZM100.876 23.76C102.042 23.76 103.069 23.4567 103.956 22.85C104.866 22.2433 105.566 21.4267 106.056 20.4C106.569 19.35 106.826 18.1717 106.826 16.865C106.826 15.5817 106.569 14.4267 106.056 13.4C105.566 12.35 104.866 11.5333 103.956 10.95C103.069 10.3433 102.042 10.04 100.876 10.04C99.7324 10.04 98.7058 10.3317 97.7958 10.915C96.9091 11.4983 96.2091 12.3033 95.6958 13.33C95.1824 14.3567 94.9258 15.535 94.9258 16.865C94.9258 18.1717 95.1708 19.35 95.6608 20.4C96.1741 21.4267 96.8741 22.2433 97.7608 22.85C98.6708 23.4567 99.7091 23.76 100.876 23.76ZM123.67 7.45C125.256 7.45 126.505 7.77667 127.415 8.43C128.325 9.08333 128.966 9.95833 129.34 11.055C129.736 12.1517 129.935 13.3767 129.935 14.73V24.565C129.935 24.9617 129.795 25.3 129.515 25.58C129.258 25.86 128.931 26 128.535 26C128.138 26 127.8 25.86 127.52 25.58C127.263 25.3 127.135 24.9617 127.135 24.565V14.8C127.135 13.9133 126.995 13.12 126.715 12.42C126.458 11.6967 126.015 11.125 125.385 10.705C124.778 10.2617 123.938 10.04 122.865 10.04C121.885 10.04 120.986 10.2617 120.17 10.705C119.353 11.125 118.7 11.6967 118.21 12.42C117.72 13.12 117.475 13.9133 117.475 14.8V24.565C117.475 24.9617 117.335 25.3 117.055 25.58C116.798 25.86 116.471 26 116.075 26C115.678 26 115.34 25.86 115.06 25.58C114.803 25.3 114.675 24.9617 114.675 24.565V9.305C114.675 8.90833 114.803 8.58167 115.06 8.325C115.34 8.045 115.678 7.905 116.075 7.905C116.495 7.905 116.833 8.045 117.09 8.325C117.346 8.58167 117.475 8.90833 117.475 9.305V11.79L116.775 12.56C116.891 11.9533 117.16 11.3467 117.58 10.74C118 10.11 118.525 9.55 119.155 9.06C119.785 8.57 120.485 8.185 121.255 7.905C122.025 7.60167 122.83 7.45 123.67 7.45ZM150.024 0.0999997C150.421 0.0999997 150.748 0.239999 151.004 0.519998C151.284 0.776666 151.424 1.10333 151.424 1.5V24.565C151.424 24.9617 151.284 25.3 151.004 25.58C150.748 25.86 150.421 26 150.024 26C149.604 26 149.266 25.86 149.009 25.58C148.753 25.3 148.624 24.9617 148.624 24.565V21.24L149.289 20.995C149.289 21.555 149.114 22.15 148.764 22.78C148.414 23.3867 147.936 23.9583 147.329 24.495C146.723 25.0317 145.999 25.475 145.159 25.825C144.343 26.175 143.456 26.35 142.499 26.35C140.936 26.35 139.513 25.9417 138.229 25.125C136.969 24.3083 135.966 23.1883 135.219 21.765C134.496 20.3417 134.134 18.72 134.134 16.9C134.134 15.0567 134.496 13.4233 135.219 12C135.966 10.5767 136.969 9.46833 138.229 8.675C139.489 7.85833 140.889 7.45 142.429 7.45C143.409 7.45 144.331 7.61333 145.194 7.94C146.058 8.26667 146.804 8.71 147.434 9.27C148.088 9.83 148.601 10.4483 148.974 11.125C149.348 11.8017 149.534 12.4783 149.534 13.155L148.624 12.945V1.5C148.624 1.10333 148.753 0.776666 149.009 0.519998C149.266 0.239999 149.604 0.0999997 150.024 0.0999997ZM142.814 23.76C143.981 23.76 145.008 23.4683 145.894 22.885C146.804 22.2783 147.504 21.4617 147.994 20.435C148.508 19.385 148.764 18.2067 148.764 16.9C148.764 15.57 148.508 14.3917 147.994 13.365C147.504 12.3383 146.804 11.5333 145.894 10.95C145.008 10.3433 143.981 10.04 142.814 10.04C141.671 10.04 140.644 10.3433 139.734 10.95C138.848 11.5333 138.148 12.3383 137.634 13.365C137.121 14.3917 136.864 15.57 136.864 16.9C136.864 18.1833 137.121 19.35 137.634 20.4C138.148 21.4267 138.848 22.2433 139.734 22.85C140.644 23.4567 141.671 23.76 142.814 23.76Z" fill="#16133D"/>
</svg>
