<svg width="80" height="80" viewBox="0 0 80 80" fill="none" xmlns="http://www.w3.org/2000/svg">
<path fill-rule="evenodd" clip-rule="evenodd" d="M48.4867 57.0736H51.563V56.1203H48.4867V57.0736ZM59.9268 57.0736H63.003V56.1203H59.9268V57.0736ZM54.2068 57.0736H57.283V56.1203H54.2068V57.0736ZM42.335 57.0736H45.4105V56.1203H42.335V57.0736ZM36.1825 57.0736H39.2587V56.1203H36.1825V57.0736ZM30.0301 57.0736H33.1063V56.1203H30.0301V57.0736ZM23.8789 57.0736H26.9545V56.1203H23.8789V57.0736Z" fill="#4DA1FF"/>
<path fill-rule="evenodd" clip-rule="evenodd" d="M48.4867 15.6001H51.563V14.6467H48.4867V15.6001ZM59.9268 15.6001H63.003V14.6467H59.9268V15.6001ZM54.2068 15.6001H57.283V14.6467H54.2068V15.6001ZM42.335 15.6001H45.4105V14.6467H42.335V15.6001ZM36.1825 15.6001H39.2587V14.6467H36.1825V15.6001ZM30.0301 15.6001H33.1063V14.6467H30.0301V15.6001ZM23.8789 15.6001H26.9545V14.6467H23.8789V15.6001Z" fill="#4DA1FF"/>
<path fill-rule="evenodd" clip-rule="evenodd" d="M38.8257 23.2786L40.8249 25.0291L43.8884 21.5304L46.8623 25.0162L48.8837 23.2926L43.9142 17.468L38.8257 23.2786Z" fill="#3EC08E"/>
<path fill-rule="evenodd" clip-rule="evenodd" d="M38.8257 48.1171L40.8249 46.3665L43.8884 49.8652L46.8623 46.3794L48.8837 48.1031L43.9142 53.9276L38.8257 48.1171Z" fill="#3EC08E"/>
<path d="M43.8712 20.3459V51.2582" stroke="#47C08F" stroke-width="4.29"/>
<path fill-rule="evenodd" clip-rule="evenodd" d="M14.0625 72.8127H16.652V12.2082H14.0625V72.8127Z" fill="#4DA1FF" stroke="#4DA1FF" stroke-width="1.43"/>
<path fill-rule="evenodd" clip-rule="evenodd" d="M6.66797 64.2759H70.9341V61.687H6.66797V64.2759Z" fill="#4DA1FF" stroke="#4DA1FF" stroke-width="1.43"/>
</svg>
