<svg width="80" height="80" viewBox="0 0 80 80" fill="none" xmlns="http://www.w3.org/2000/svg">
<path fill-rule="evenodd" clip-rule="evenodd" d="M37.1044 13.2626C24.3257 13.2626 13.9291 23.6592 13.9291 36.4379C13.9291 49.2172 24.3257 59.6138 37.1044 59.6138C49.8831 59.6138 60.2797 49.2172 60.2797 36.4379C60.2797 23.6592 49.8831 13.2626 37.1044 13.2626ZM37.1044 61.5429C23.2618 61.5429 12 50.2811 12 36.4379C12 22.5953 23.2618 11.3335 37.1044 11.3335C50.947 11.3335 62.2088 22.5953 62.2088 36.4379C62.2088 50.2811 50.947 61.5429 37.1044 61.5429Z" fill="#4DA1FF"/>
<path fill-rule="evenodd" clip-rule="evenodd" d="M67.5233 74.9684C65.674 74.9684 63.8241 74.2653 62.416 72.8572L47.9075 58.3481C47.5308 57.9719 47.5308 57.361 47.9075 56.9843C48.2842 56.6076 48.8952 56.6076 49.2719 56.9843L63.7798 71.4928C65.8443 73.5574 69.2034 73.5568 71.2668 71.4928C73.3313 69.4289 73.3313 66.0698 71.2668 64.0059L57.0025 49.7416C56.6258 49.3649 56.6258 48.754 57.0025 48.3773C57.3792 48.0005 57.9901 48.0005 58.3668 48.3773L72.6311 62.6415C75.4467 65.4583 75.4467 70.0404 72.6311 72.8572C71.223 74.2647 69.3731 74.9684 67.5233 74.9684Z" fill="#4DA1FF"/>
<path fill-rule="evenodd" clip-rule="evenodd" d="M66.2504 65.3301C66.0038 65.3301 65.7566 65.236 65.5685 65.0474L57.0833 56.5627C56.7066 56.186 56.7066 55.5751 57.0833 55.1984C57.46 54.8217 58.0709 54.8217 58.4476 55.1984L66.9323 63.6836C67.309 64.0603 67.309 64.6712 66.9323 65.0474C66.7442 65.236 66.497 65.3301 66.2504 65.3301Z" fill="#4DA1FF"/>
<path fill-rule="evenodd" clip-rule="evenodd" d="M21.2706 46.7123C25.01 52.4772 31.514 55.7405 38.4268 55.2662C48.0546 54.6115 55.7621 46.5278 55.9732 36.8622C56.085 31.7975 54.2156 27.002 50.7099 23.3573C47.2018 19.7102 42.4872 17.6539 37.4332 17.5682C27.2785 17.3931 18.6632 25.5046 18.2486 35.6451C18.2108 36.5878 18.2409 37.5281 18.3397 38.4572L24.0998 32.6953C24.6196 32.1802 25.4576 32.1814 25.9704 32.6953L31.8564 38.5808L40.7639 29.6733L38.92 27.8287C38.5368 27.4455 38.4256 26.8754 38.6385 26.3763C38.8466 25.8848 39.3227 25.5708 39.855 25.5708H39.8798L48.876 25.7074C49.5957 25.7187 50.1682 26.2911 50.1788 27.0109L50.3166 36.0112C50.3243 36.5541 50.0061 37.0396 49.5088 37.2501C49.0102 37.4589 48.4407 37.3489 48.0581 36.9669L46.3585 35.2672L32.7914 48.8348C32.2917 49.3351 31.4218 49.3351 30.9209 48.8348L25.0348 42.9487L21.2706 46.7123ZM37.1038 57.6767C29.5394 57.6773 22.6042 53.7292 18.7519 47.1328L18.2918 46.3451L25.0348 39.6039L31.8559 46.4249L45.4235 32.8573C45.6689 32.6089 45.9983 32.47 46.3585 32.47C46.7121 32.47 47.0445 32.6072 47.294 32.8573L47.9114 33.4747L47.8292 28.0576L42.4127 27.9748L43.1744 28.7371C43.4246 28.9873 43.5618 29.3196 43.5618 29.6733C43.5618 30.0257 43.4246 30.3581 43.1744 30.6083L32.7914 40.9907C32.2734 41.5034 31.4377 41.5028 30.9256 40.9954L25.0348 35.1052L16.876 43.2681L16.3988 41.1811C15.9801 39.3478 15.8074 37.453 15.8854 35.5481C16.352 24.1355 26.0502 15.0276 37.4734 15.2026C43.1608 15.2996 48.4673 17.6131 52.4149 21.7168C56.36 25.8192 58.4636 31.2162 58.3388 36.9142C58.1005 47.7916 49.4248 56.8895 38.5876 57.6258C38.0909 57.6601 37.5953 57.6767 37.1038 57.6767Z" fill="#3EC08E"/>
</svg>
