<svg width="80" height="80" viewBox="0 0 80 80" fill="none" xmlns="http://www.w3.org/2000/svg">
<path fill-rule="evenodd" clip-rule="evenodd" d="M72.276 49.6635H21.148C19.388 49.6635 17.98 51.0715 17.98 52.8315V59.2555C17.98 59.6075 18.068 59.9595 18.156 60.3115H10.5C8.74003 60.3115 7.33203 61.7195 7.33203 63.4795V69.9035C7.33203 71.6635 8.74003 73.0715 10.5 73.0715H61.628C62.244 73.0715 62.684 72.6315 62.684 72.0155V62.4235H72.276C72.892 62.4235 73.332 61.9835 73.332 61.3675V50.7195C73.332 50.1035 72.892 49.6635 72.276 49.6635ZM20.092 59.2555V52.8315C20.092 52.2155 20.532 51.7755 21.148 51.7755H24.316V60.3115H21.148C20.62 60.3115 20.092 59.7835 20.092 59.2555ZM9.44403 63.4795V69.9035C9.44403 70.4315 9.97203 70.9595 10.5 70.9595H13.668V62.4235H10.5C9.88403 62.4235 9.44403 62.8635 9.44403 63.4795ZM60.572 66.6475H54.148V68.7595H60.572V70.8715H15.868V66.6475H52.036V64.5355H15.868V62.4235H60.572V66.6475ZM26.516 60.3115H61.628H71.22V58.1995H64.796V56.0875H71.22V51.8635H26.516V53.9755H62.684V56.0875H26.516V60.3115Z" fill="#47C08F"/>
<path fill-rule="evenodd" clip-rule="evenodd" d="M17.98 23.1755L8.03603 19.8315C7.59603 19.6555 7.33203 19.2155 7.33203 18.7755C7.33203 18.3355 7.59603 17.8955 8.03603 17.8075L39.98 7.15946C40.244 7.07146 40.508 7.07146 40.684 7.15946L72.716 17.8075C73.156 17.8955 73.42 18.3355 73.42 18.7755C73.42 19.2155 73.156 19.5675 72.716 19.7435L62.772 23.0875V41.2155C62.772 45.6155 51.156 47.6395 40.42 47.6395C36.196 47.6395 32.236 47.2875 28.716 46.7595C28.1 47.2875 27.396 47.6395 26.516 47.6395H24.404C22.732 47.6395 21.412 46.3195 21.236 44.7355C19.036 43.7675 17.98 42.5355 17.98 41.2155V23.1755ZM20.092 23.7915V41.1275C20.092 41.3915 20.444 41.9195 21.676 42.5355C22.292 41.6555 23.26 41.1275 24.316 41.1275V25.1995L20.092 23.7915ZM26.516 45.3515H24.404C23.788 45.3515 23.348 44.9115 23.348 44.2955C23.348 43.6795 23.788 43.2395 24.404 43.2395H26.516C27.132 43.2395 27.572 43.6795 27.572 44.2955C27.572 44.9115 27.044 45.3515 26.516 45.3515ZM40.332 45.3515C53.444 45.3515 60.572 42.5355 60.572 41.1275H60.396V23.7915L49.748 27.3115V30.4795H47.636V28.0155L45.524 28.7195V32.5915H43.412V29.4235L41.3 30.1275V34.7035H39.188V30.1275L37.076 29.4235V32.5915H34.964V28.7195L32.852 28.0155V31.5355H30.74V27.3115L26.516 25.9035V41.1275C28.276 41.1275 29.684 42.5355 29.684 44.2955V44.6475C32.852 45.0875 36.548 45.3515 40.332 45.3515ZM40.332 9.27146L68.932 18.7755L40.332 28.2795L27.924 24.1435L36.812 20.0955C37.78 20.6235 39.012 20.8875 40.332 20.8875C43.324 20.8875 45.612 19.4795 45.612 17.7195C45.612 15.9595 43.324 14.5515 40.332 14.5515C37.34 14.5515 35.052 15.9595 35.052 17.7195C35.052 17.9835 35.14 18.2475 35.228 18.5115L25.02 23.1755H24.932L11.732 18.7755L40.332 9.27146ZM40.332 16.6635C38.308 16.6635 37.164 17.4555 37.164 17.7195C37.164 17.9835 38.308 18.7755 40.332 18.7755C42.356 18.7755 43.5 17.9835 43.5 17.7195C43.5 17.4555 42.356 16.6635 40.332 16.6635Z" fill="#4DA1FF"/>
</svg>
