<svg width="80" height="80" viewBox="0 0 80 80" fill="none" xmlns="http://www.w3.org/2000/svg">
<mask id="mask0_1176_1707" style="mask-type:luminance" maskUnits="userSpaceOnUse" x="8" y="7" width="65" height="65">
<path fill-rule="evenodd" clip-rule="evenodd" d="M8 7.33334H72.6231V71.9571H8V7.33334Z" fill="white"/>
</mask>
<g mask="url(#mask0_1176_1707)">
<path fill-rule="evenodd" clip-rule="evenodd" d="M50.0052 34.26C50.0046 34.8546 49.5229 35.3365 48.9282 35.337H45.6972V26.7206H48.9282C49.5227 26.7213 50.0046 27.2032 50.0052 27.7977V34.26ZM43.4452 17.5993C41.2337 15.075 37.6428 13.796 32.7725 13.796C27.902 13.796 24.3111 15.075 22.0998 17.5993C20.4595 19.534 19.6485 22.0375 19.8427 24.5665H17.6936C17.703 16.2426 24.4483 9.4972 32.7724 9.48786C41.0961 9.4972 47.8418 16.2428 47.8512 24.5667H45.7023C45.8964 22.0376 45.0854 19.5341 43.4452 17.5993ZM30.6183 42.8764C30.619 42.2818 31.1006 41.8 31.6952 41.7995H34.9265C35.5213 41.7995 36.0035 42.2818 36.0035 42.8764C36.0035 43.4712 35.5211 43.9535 34.9265 43.9535H31.6952C31.1006 43.953 30.6189 43.4711 30.6183 42.8764ZM43.5429 24.5665V39.5213C42.7678 42.3502 41.4531 45.0029 39.6712 47.3331C39.386 47.7063 39.2325 48.1635 39.2347 48.6331V51.2238C39.2228 53.1004 40.2703 54.8232 41.9422 55.6761L51.2133 60.8352C53.7809 62.113 55.4002 64.7378 55.3905 67.6058V69.8028H10.1542V67.39C10.1503 64.6221 11.6632 62.0743 14.0955 60.7532L23.6975 55.511C25.3113 54.6392 26.3151 52.9508 26.31 51.1165V48.6331C26.3123 48.1635 26.1588 47.7063 25.8736 47.3331C25.0737 46.2642 24.3586 45.1343 23.7353 43.9536H28.6629C29.1162 45.2409 30.3306 46.1035 31.6954 46.1078H34.9266C36.7111 46.1078 38.1578 44.6611 38.1578 42.8765C38.1578 41.0922 36.7112 39.6455 34.9266 39.6455H31.6954C30.3306 39.6496 29.1162 40.5123 28.6627 41.7996H22.7405C22.4403 41.0588 22.1936 40.2975 22.002 39.5214V24.5665C22.002 24.5195 21.9988 24.4723 21.9924 24.4256C21.8345 22.4662 22.4551 20.5234 23.7196 19.0182C25.5039 16.9829 28.55 15.9501 32.7725 15.9501C36.9792 15.9501 40.0189 16.9756 41.8064 18.9972C43.0733 20.5102 43.6998 22.4578 43.5523 24.4256C43.5462 24.4723 43.5429 24.5193 43.5429 24.5665ZM17.6934 39.6453V37.4912H19.8477V39.6453C19.8476 39.7264 19.8568 39.8073 19.8751 39.8862C20.0291 40.534 20.2192 41.1726 20.4443 41.7994H19.8477C18.6585 41.798 17.695 40.8346 17.6934 39.6453ZM15.5394 34.2602V27.7978C15.5402 27.2032 16.0219 26.7213 16.6166 26.7208H19.8477V35.3373H16.6166C16.0219 35.3365 15.5399 34.8546 15.5394 34.2602ZM48.7407 37.2926C49.7442 37.2926 51.7511 36.6345 51.7511 34.26C51.7511 32.2531 51.7511 29.7446 51.7511 27.6033C51.7511 24.5929 49.7442 24.5929 49.7442 24.5929C49.7442 24.5929 49.7442 25.0448 49.7442 24.5929C49.7442 17.5687 44.3173 11.81 44.3173 11.81C43.3695 10.9481 42.3429 10.2066 41.2593 9.58905C36.5776 6.9212 30.8303 6.56682 25.7708 8.80957C19.5403 11.5715 15.5275 17.7513 15.5392 24.5665V24.7651C14.2521 25.2185 13.3894 26.4329 13.3852 27.7977V34.26C13.3894 35.6248 14.2521 36.8393 15.5392 37.2926V39.6453C15.5417 42.0237 17.4691 43.951 19.8475 43.9535H21.3288C22.1134 45.6033 23.0605 47.1708 24.1557 48.633V51.1163C24.1596 52.1598 23.5886 53.1207 22.6704 53.6165L13.0652 58.8608C9.93972 60.5589 7.99521 63.8329 8.00001 67.39V70.88C7.99988 71.1656 8.11323 71.4396 8.31543 71.6417C8.51737 71.8436 8.79139 71.9571 9.07715 71.9571H56.4674C56.7531 71.9572 57.0272 71.8438 57.2293 71.6417C57.4311 71.4397 57.5447 71.1657 57.5447 70.88V67.6058C57.5611 63.9377 55.4981 60.5771 52.2197 58.9315L42.9508 53.7733C41.9884 53.2889 41.3833 52.3013 41.3889 51.2238L41.3836 48.6395C43.1619 46.283 44.523 43.6392 45.4079 40.8229C45.79 39.9052 45.7303 38.2961 45.7303 37.2926C47.7372 37.2926 47.7372 37.2926 48.7407 37.2926Z" fill="#4DA1FF"/>
</g>
<path fill-rule="evenodd" clip-rule="evenodd" d="M59.0537 12.9867H73.5441C76.6206 12.9903 79.1138 15.4835 79.1174 18.5599V29.7064C79.1138 32.7828 76.6206 35.276 73.5441 35.2796H68.4324L63.1857 40.5263C62.9767 40.7353 62.6933 40.8529 62.3977 40.8529C62.2511 40.8533 62.106 40.8246 61.9707 40.7682C61.5543 40.5955 61.2829 40.189 61.283 39.7382V35.2796H59.0537C55.9773 35.276 53.4841 32.7828 53.4805 29.7064V18.5599C53.4841 15.4835 55.9773 12.9903 59.0537 12.9867ZM73.5442 33.0503C75.391 33.0503 76.8881 31.5532 76.8881 29.7064V18.5599C76.8881 16.7131 75.391 15.216 73.5442 15.216H59.0537C57.2069 15.216 55.7098 16.7131 55.7098 18.5599V29.7064C55.7098 31.5532 57.2069 33.0503 59.0537 33.0503H62.3977C63.0132 33.0503 63.5123 33.5494 63.5123 34.165V37.0475L67.1828 33.3769C67.3918 33.1679 67.6752 33.0503 67.9709 33.0503H73.5442Z" fill="#47C08F"/>
<rect x="59.0547" y="18.5599" width="7.80254" height="2.2293" fill="#47C08F"/>
<rect x="69.0859" y="18.5599" width="4.4586" height="2.2293" fill="#47C08F"/>
<rect x="59.0547" y="23.0185" width="14.4904" height="2.2293" fill="#47C08F"/>
<rect x="59.0547" y="27.4771" width="7.80254" height="2.2293" fill="#47C08F"/>
</svg>
