<svg width="80" height="80" viewBox="0 0 80 80" fill="none" xmlns="http://www.w3.org/2000/svg">
<path d="M24 26.6667H73.753L74 60H66.9577" stroke="#3EC08E" stroke-width="2.5" stroke-linecap="square"/>
<path d="M24 22H70.6667" stroke="#3EC08E" stroke-width="2.5" stroke-linecap="square"/>
<mask id="path-3-inside-1_1176_1698" fill="white">
<path fill-rule="evenodd" clip-rule="evenodd" d="M65.332 42.9517V53.6184H65.529C66.0813 53.6184 66.529 53.1707 66.529 52.6184V43.9517C66.529 43.3994 66.0813 42.9517 65.529 42.9517H65.332Z"/>
</mask>
<path d="M65.332 53.6184H62.832V56.1184H65.332V53.6184ZM65.332 42.9517V40.4517H62.832V42.9517H65.332ZM67.832 53.6184V42.9517H62.832V53.6184H67.832ZM65.529 51.1184H65.332V56.1184H65.529V51.1184ZM64.029 52.6184C64.029 51.79 64.7006 51.1184 65.529 51.1184V56.1184C67.462 56.1184 69.029 54.5514 69.029 52.6184H64.029ZM64.029 43.9517V52.6184H69.029V43.9517H64.029ZM65.529 45.4517C64.7006 45.4517 64.029 44.7801 64.029 43.9517H69.029C69.029 42.0187 67.462 40.4517 65.529 40.4517V45.4517ZM65.332 45.4517H65.529V40.4517H65.332V45.4517Z" fill="#4DA1FF" mask="url(#path-3-inside-1_1176_1698)"/>
<rect x="52.582" y="42.5833" width="14.8333" height="11.5" rx="1.99" stroke="#4DA1FF" stroke-width="2.5"/>
<path d="M59.668 48.3333C59.668 49.4379 58.7725 50.3333 57.668 50.3333C56.5634 50.3333 55.668 49.4379 55.668 48.3333C55.668 47.2288 56.5634 46.3333 57.668 46.3333C58.7725 46.3333 59.668 47.2288 59.668 48.3333Z" stroke="#4DA1FF" stroke-width="2"/>
</svg>
