<svg width="80" height="80" viewBox="0 0 80 80" fill="none" xmlns="http://www.w3.org/2000/svg">
<path fill-rule="evenodd" clip-rule="evenodd" d="M16.332 33.2278H75.6795V26.6894H16.332V33.2278Z" fill="#4DA1FF"/>
<path fill-rule="evenodd" clip-rule="evenodd" d="M58.5977 52.0895H69.9194V49.2875H58.5977V52.0895Z" fill="#3EC08E"/>
<path fill-rule="evenodd" clip-rule="evenodd" d="M38.1914 45.2378H69.918V42.4358H38.1914V45.2378Z" fill="#3EC08E"/>
<mask id="mask0_1176_1692" style="mask-type:luminance" maskUnits="userSpaceOnUse" x="14" y="19" width="64" height="42">
<path fill-rule="evenodd" clip-rule="evenodd" d="M14.1055 19.2273H77.905V60.5872H14.1055V19.2273Z" fill="white"/>
</mask>
<g mask="url(#mask0_1176_1692)">
<path fill-rule="evenodd" clip-rule="evenodd" d="M72.3499 60.5872H32.7716V57.7852H72.3499C73.8672 57.7852 75.1031 56.5504 75.1031 55.0325V24.7817C75.1031 23.2644 73.8672 22.0291 72.3499 22.0291H19.6613C18.1423 22.0291 16.9075 23.2644 16.9075 24.7817V35.2756H14.1055V24.7817C14.1055 21.7191 16.5981 19.2271 19.6613 19.2271H72.3499C75.4125 19.2271 77.9051 21.7191 77.9051 24.7817V55.0325C77.9051 58.0957 75.4125 60.5872 72.3499 60.5872" fill="#4DA1FF"/>
</g>
<path fill-rule="evenodd" clip-rule="evenodd" d="M16.3488 40.3327C9.24772 40.3327 3.47053 46.1099 3.47053 53.211C3.47053 60.3121 9.24772 66.0887 16.3488 66.0887C23.45 66.0887 29.2271 60.3121 29.2271 53.211C29.2271 46.1099 23.45 40.3327 16.3488 40.3327M16.3488 68.8913C7.70239 68.8913 0.667969 61.8569 0.667969 53.211C0.667969 44.5645 7.70239 37.5301 16.3488 37.5301C24.9953 37.5301 32.0297 44.5645 32.0297 53.211C32.0297 61.8569 24.9953 68.8913 16.3488 68.8913" fill="#4DA1FF"/>
<path fill-rule="evenodd" clip-rule="evenodd" d="M10.1229 52.5791C10.1229 53.4126 10.2776 54.0124 10.5875 54.3761C10.8975 54.7405 11.319 54.9232 11.8526 54.9232C12.4008 54.9232 12.8251 54.7444 13.1255 54.3879C13.4265 54.0308 13.5768 53.3902 13.5768 52.4665C13.5768 51.6885 13.4198 51.1207 13.1059 50.7619C12.7926 50.4032 12.3672 50.2239 11.8296 50.2239C11.3151 50.2239 10.9026 50.406 10.5903 50.7704C10.2787 51.1347 10.1229 51.7378 10.1229 52.5791M7.57031 52.5674C7.57031 51.2193 7.94642 50.1695 8.6975 49.4178C9.44859 48.6673 10.4951 48.2918 11.8358 48.2918C13.2102 48.2918 14.2695 48.6606 15.0133 49.3982C15.7571 50.137 16.1288 51.1706 16.1288 52.5001C16.1288 53.4653 15.9662 54.2567 15.6417 54.875C15.3166 55.4927 14.8469 55.9736 14.2331 56.3172C13.6188 56.6608 12.8537 56.8328 11.9373 56.8328C11.0057 56.8328 10.2344 56.6843 9.62403 56.3878C9.01363 56.0913 8.51926 55.6216 8.13979 54.9792C7.76033 54.3369 7.57031 53.5331 7.57031 52.5674" fill="#3EC08E"/>
<path fill-rule="evenodd" clip-rule="evenodd" d="M22.732 55.3773C22.732 55.7276 22.7886 55.9809 22.9013 56.1379C22.9713 56.2393 23.0773 56.2903 23.218 56.2903C23.3592 56.2903 23.4663 56.2393 23.5391 56.1379C23.6518 55.9809 23.7084 55.7276 23.7084 55.3773C23.7084 55.0292 23.6518 54.7736 23.5391 54.6133C23.4663 54.5113 23.3592 54.4608 23.218 54.4608C23.0773 54.4608 22.9713 54.5135 22.9013 54.6166C22.7886 54.7753 22.732 55.0292 22.732 55.3773V55.3773ZM21.5448 55.3694C21.5448 55.0796 21.6065 54.805 21.7304 54.5477C21.8548 54.2899 22.0459 54.0909 22.3055 53.9496C22.5644 53.8089 22.8688 53.7378 23.218 53.7378C23.7392 53.7378 24.149 53.8874 24.4477 54.1839C24.7465 54.481 24.8956 54.8767 24.8956 55.3694C24.8956 55.8627 24.7465 56.2567 24.4477 56.5549C24.149 56.8514 23.7392 56.9999 23.218 56.9999C22.8688 56.9999 22.5644 56.9299 22.3055 56.7897C22.0459 56.6491 21.8548 56.4484 21.7304 56.1911C21.6065 55.9333 21.5448 55.6598 21.5448 55.3694V55.3694ZM22.3374 50.3909H23.2309L19.652 57.0095H18.7686L22.3374 50.3909ZM18.2658 52.0265C18.2658 52.3763 18.3219 52.6296 18.4346 52.7877C18.508 52.8914 18.615 52.943 18.7557 52.943C18.8964 52.943 19.0024 52.8914 19.073 52.7877C19.1856 52.6296 19.2417 52.3763 19.2417 52.0265C19.2417 51.6801 19.1856 51.4268 19.073 51.2665C19.0024 51.1644 18.8964 51.1146 18.7557 51.1146C18.615 51.1146 18.508 51.1644 18.4346 51.2665C18.3219 51.424 18.2658 51.6773 18.2658 52.0265V52.0265ZM17.0781 52.0187C17.0781 51.7311 17.1403 51.4576 17.2665 51.1986C17.3915 50.9397 17.5826 50.7407 17.841 50.6006C18.0983 50.461 18.4037 50.3909 18.7557 50.3909C19.2742 50.3909 19.6828 50.5395 19.981 50.8349C20.2798 51.1308 20.4294 51.5254 20.4294 52.0187C20.4294 52.5142 20.2798 52.9099 19.981 53.2064C19.6828 53.5007 19.2742 53.6492 18.7557 53.6492C18.4037 53.6492 18.0983 53.5803 17.841 53.4401C17.5826 53.3011 17.3915 53.1016 17.2665 52.8421C17.1403 52.5837 17.0781 52.3085 17.0781 52.0187V52.0187Z" fill="#3EC08E"/>
</svg>
