<svg width="115" height="80" viewBox="0 0 115 80" fill="none" xmlns="http://www.w3.org/2000/svg">
<mask id="path-1-inside-1_1176_1701" fill="white">
<path fill-rule="evenodd" clip-rule="evenodd" d="M48.3334 7.82667V14V19.8133V20.9733V22.1333V23.2933V24.6667V69.3067V70.1733V70.4667V71.3333V71.6267H47.1734H46.0134H2.70672H1.54672H0.386719V70.4667V69.3067V8.98667V7.82667V6.66667H1.54672H2.70672H46.0134H47.1734H48.3334V7.82667ZM49.4934 22.1333V20.9733H50.6534H52.9734H54.1334V19.8133V8.98667V8.01859C54.5075 7.92296 54.8954 7.86152 55.2934 7.83777V8.01859V8.98667V9.00031V19.8133V20.9733V22.1333H54.1334H52.9734H50.6534H49.4934ZM46.0134 7.82667H2.70672H1.54672V8.98667V69.3067V70.4667H2.70672H46.0134H47.1734V69.3067V24.6667V23.2933V22.1333V20.9733V14V8.98667V7.82667H46.0134Z"/>
</mask>
<path d="M48.3334 71.6267V75.1267H51.8334V71.6267H48.3334ZM0.386719 71.6267H-3.11328V75.1267H0.386719V71.6267ZM0.386719 6.66667V3.16667H-3.11328V6.66667H0.386719ZM48.3334 6.66667H51.8334V3.16667H48.3334V6.66667ZM49.4934 20.9733V17.4733H45.9934V20.9733H49.4934ZM49.4934 22.1333H45.9934V25.6333H49.4934V22.1333ZM54.1334 20.9733V24.4733H57.6334V20.9733H54.1334ZM54.1334 8.01859L53.2667 4.6276L50.6334 5.30064V8.01859H54.1334ZM55.2934 7.83777H58.7934V4.12278L55.085 4.34399L55.2934 7.83777ZM55.2934 22.1333V25.6333H58.7934V22.1333H55.2934ZM1.54672 7.82667V4.32667H-1.95328V7.82667H1.54672ZM1.54672 70.4667H-1.95328V73.9667H1.54672V70.4667ZM47.1734 70.4667V73.9667H50.6734V70.4667H47.1734ZM47.1734 7.82667H50.6734V4.32667H47.1734V7.82667ZM51.8334 14V7.82667H44.8334V14H51.8334ZM51.8334 19.8133V14H44.8334V19.8133H51.8334ZM51.8334 20.9733V19.8133H44.8334V20.9733H51.8334ZM51.8334 22.1333V20.9733H44.8334V22.1333H51.8334ZM51.8334 23.2933V22.1333H44.8334V23.2933H51.8334ZM51.8334 24.6667V23.2933H44.8334V24.6667H51.8334ZM51.8334 69.3067V24.6667H44.8334V69.3067H51.8334ZM51.8334 70.1733V69.3067H44.8334V70.1733H51.8334ZM51.8334 70.4667V70.1733H44.8334V70.4667H51.8334ZM51.8334 71.3333V70.4667H44.8334V71.3333H51.8334ZM51.8334 71.6267V71.3333H44.8334V71.6267H51.8334ZM47.1734 75.1267H48.3334V68.1267H47.1734V75.1267ZM46.0134 75.1267H47.1734V68.1267H46.0134V75.1267ZM2.70672 75.1267H46.0134V68.1267H2.70672V75.1267ZM1.54672 75.1267H2.70672V68.1267H1.54672V75.1267ZM0.386719 75.1267H1.54672V68.1267H0.386719V75.1267ZM-3.11328 70.4667V71.6267H3.88672V70.4667H-3.11328ZM-3.11328 69.3067V70.4667H3.88672V69.3067H-3.11328ZM-3.11328 8.98667V69.3067H3.88672V8.98667H-3.11328ZM-3.11328 7.82667V8.98667H3.88672V7.82667H-3.11328ZM-3.11328 6.66667V7.82667H3.88672V6.66667H-3.11328ZM1.54672 3.16667H0.386719V10.1667H1.54672V3.16667ZM2.70672 3.16667H1.54672V10.1667H2.70672V3.16667ZM46.0134 3.16667H2.70672V10.1667H46.0134V3.16667ZM47.1734 3.16667H46.0134V10.1667H47.1734V3.16667ZM48.3334 3.16667H47.1734V10.1667H48.3334V3.16667ZM51.8334 7.82667V6.66667H44.8334V7.82667H51.8334ZM45.9934 20.9733V22.1333H52.9934V20.9733H45.9934ZM50.6534 17.4733H49.4934V24.4733H50.6534V17.4733ZM52.9734 17.4733H50.6534V24.4733H52.9734V17.4733ZM54.1334 17.4733H52.9734V24.4733H54.1334V17.4733ZM50.6334 19.8133V20.9733H57.6334V19.8133H50.6334ZM50.6334 8.98667V19.8133H57.6334V8.98667H50.6334ZM50.6334 8.01859V8.98667H57.6334V8.01859H50.6334ZM55.085 4.34399C54.4631 4.38108 53.8549 4.47726 53.2667 4.6276L55.0001 11.4096C55.1602 11.3687 55.3276 11.342 55.5018 11.3316L55.085 4.34399ZM58.7934 8.01859V7.83777H51.7934V8.01859H58.7934ZM58.7934 8.98667V8.01859H51.7934V8.98667H58.7934ZM58.7934 9.00031V8.98667H51.7934V9.00031H58.7934ZM58.7934 19.8133V9.00031H51.7934V19.8133H58.7934ZM58.7934 20.9733V19.8133H51.7934V20.9733H58.7934ZM58.7934 22.1333V20.9733H51.7934V22.1333H58.7934ZM54.1334 25.6333H55.2934V18.6333H54.1334V25.6333ZM52.9734 25.6333H54.1334V18.6333H52.9734V25.6333ZM50.6534 25.6333H52.9734V18.6333H50.6534V25.6333ZM49.4934 25.6333H50.6534V18.6333H49.4934V25.6333ZM2.70672 11.3267H46.0134V4.32667H2.70672V11.3267ZM1.54672 11.3267H2.70672V4.32667H1.54672V11.3267ZM5.04672 8.98667V7.82667H-1.95328V8.98667H5.04672ZM5.04672 69.3067V8.98667H-1.95328V69.3067H5.04672ZM5.04672 70.4667V69.3067H-1.95328V70.4667H5.04672ZM2.70672 66.9667H1.54672V73.9667H2.70672V66.9667ZM46.0134 66.9667H2.70672V73.9667H46.0134V66.9667ZM47.1734 66.9667H46.0134V73.9667H47.1734V66.9667ZM43.6734 69.3067V70.4667H50.6734V69.3067H43.6734ZM43.6734 24.6667V69.3067H50.6734V24.6667H43.6734ZM43.6734 23.2933V24.6667H50.6734V23.2933H43.6734ZM43.6734 22.1333V23.2933H50.6734V22.1333H43.6734ZM43.6734 20.9733V22.1333H50.6734V20.9733H43.6734ZM43.6734 14V20.9733H50.6734V14H43.6734ZM43.6734 8.98667V14H50.6734V8.98667H43.6734ZM43.6734 7.82667V8.98667H50.6734V7.82667H43.6734ZM46.0134 11.3267H47.1734V4.32667H46.0134V11.3267Z" fill="#4DA1FF" mask="url(#path-1-inside-1_1176_1701)"/>
<mask id="path-3-inside-2_1176_1701" fill="white">
<path fill-rule="evenodd" clip-rule="evenodd" d="M94.332 12.3333C94.332 9.20373 96.8691 6.66667 99.9987 6.66667C103.128 6.66667 105.665 9.20373 105.665 12.3333V20.6667H94.332V12.3333Z"/>
</mask>
<path d="M105.665 20.6667V24.1667H109.165V20.6667H105.665ZM94.332 20.6667H90.832V24.1667H94.332V20.6667ZM99.9987 3.16667C94.9361 3.16667 90.832 7.27073 90.832 12.3333H97.832C97.832 11.1367 98.8021 10.1667 99.9987 10.1667V3.16667ZM109.165 12.3333C109.165 7.27073 105.061 3.16667 99.9987 3.16667V10.1667C101.195 10.1667 102.165 11.1367 102.165 12.3333H109.165ZM109.165 20.6667V12.3333H102.165V20.6667H109.165ZM94.332 24.1667H105.665V17.1667H94.332V24.1667ZM90.832 12.3333V20.6667H97.832V12.3333H90.832Z" fill="#4DA1FF" mask="url(#path-3-inside-2_1176_1701)"/>
<rect x="59.418" y="24.4167" width="6.5" height="7.16667" stroke="#3EC08E" stroke-width="3.5"/>
<path d="M75.1479 23.6567H86.7193" stroke="#3EC08E" stroke-width="3.5" stroke-linecap="square"/>
<path d="M75.1479 31.9967H86.7193" stroke="#3EC08E" stroke-width="3.5" stroke-linecap="square"/>
<path d="M58.7814 39.6633H86.4243" stroke="#3EC08E" stroke-width="3.5" stroke-linecap="square"/>
<path d="M58.7814 48.1967H86.4243" stroke="#3EC08E" stroke-width="3.5" stroke-linecap="square"/>
<path d="M58.7812 55.9967H73.0908" stroke="#3EC08E" stroke-width="3.5" stroke-linecap="square"/>
</svg>
